<svg xmlns="http://www.w3.org/2000/svg" width="980" height="1580" viewBox="0 0 980 1580">
  <defs><style>.box{fill:#f8fafc;stroke:#334155;stroke-width:2;rx:12;ry:12}.diamond{fill:#fff7ed;stroke:#9a3412;stroke-width:2}.txt{font-family:Arial, 'Noto Sans KR', sans-serif;font-size:22px;fill:#0f172a}.title{font-family:Arial, 'Noto Sans KR', sans-serif;font-size:28px;font-weight:bold;fill:#0f172a}.line{stroke:#475569;stroke-width:3;fill:none;marker-end:url(#arrow)}.label{font-family:Arial, 'Noto Sans KR', sans-serif;font-size:18px;fill:#7c2d12}</style><marker id="arrow" markerWidth="10" markerHeight="10" refX="8" refY="3" orient="auto" markerUnits="strokeWidth"><path d="M0,0 L0,6 L9,3 z" fill="#475569"/></marker></defs>
  <text x="40" y="45" class="title">도면 4. 복합 명령 처리 순서도</text>
  <rect x="270" y="80" width="440" height="80" class="box"/><text x="330" y="128" class="txt">복합 자연어 명령 수신</text>
  <rect x="320" y="220" width="340" height="80" class="box"/><text x="415" y="268" class="txt">자연어 해석</text>
  <rect x="250" y="360" width="480" height="80" class="box"/><text x="305" y="408" class="txt">복수 하위 작업으로 분해</text>
  <rect x="300" y="500" width="380" height="80" class="box"/><text x="375" y="548" class="txt">제1 하위 작업 선택</text>
  <rect x="320" y="640" width="340" height="80" class="box"/><text x="405" y="688" class="txt">실행 경로 선택</text>
  <rect x="340" y="780" width="300" height="80" class="box"/><text x="405" y="828" class="txt">단말 제어 수행</text>
  <rect x="310" y="920" width="360" height="80" class="box"/><text x="385" y="968" class="txt">실행 결과 검증</text>
  <polygon points="490,1060 660,1160 490,1260 320,1160" class="diamond"/><text x="390" y="1170" class="txt">해당 하위 작업 성공 여부</text>
  <rect x="90" y="1320" width="330" height="90" class="box"/><text x="125" y="1374" class="txt">대체 경로 선택 및 재시도</text>
  <polygon points="700,1320 860,1410 700,1500 540,1410" class="diamond"/><text x="600" y="1420" class="txt">다음 하위 작업 존재 여부</text>
  <rect x="560" y="1180" width="280" height="80" class="box"/><text x="620" y="1228" class="txt">다음 하위 작업 선택</text>
  <rect x="560" y="80" width="280" height="80" opacity="0"/><rect x="560" y="1520" width="280" height="50" class="box"/><text x="600" y="1552" class="txt">전체 결과 피드백 제공</text>
  <line x1="490" y1="160" x2="490" y2="220" class="line"/>
  <line x1="490" y1="300" x2="490" y2="360" class="line"/>
  <line x1="490" y1="440" x2="490" y2="500" class="line"/>
  <line x1="490" y1="580" x2="490" y2="640" class="line"/>
  <line x1="490" y1="720" x2="490" y2="780" class="line"/>
  <line x1="490" y1="860" x2="490" y2="920" class="line"/>
  <line x1="490" y1="1000" x2="490" y2="1060" class="line"/>
  <line x1="320" y1="1160" x2="255" y2="1320" class="line"/>
  <text x="280" y="1230" class="label">실패</text>
  <path d="M255,1320 C80,1320 80,680 320,680" class="line"/>
  <line x1="660" y1="1160" x2="700" y2="1320" class="line"/>
  <text x="670" y="1230" class="label">성공</text>
  <line x1="700" y1="1320" x2="700" y2="1260" class="line"/>
  <line x1="700" y1="1180" x2="700" y2="1120" class="line"/>
  <path d="M700,1180 C900,1180 900,680 660,680" class="line"/>
  <text x="830" y="1380" class="label">예</text>
  <line x1="700" y1="1500" x2="700" y2="1520" class="line"/>
  <text x="720" y="1490" class="label">아니오</text>
</svg>